PathFileType	4	(X/Y/Z)	Patient4_TMGait_0pt2_02_right_14.trc.trc
DataRate	CameraRate	NumFrames	NumMarkers	Units	OrigDataRate	OrigDataStartFrame	OrigNumFrames
43.209876543210	43.209876543210	7	33	mm	43.209876543210	18	       141
Frame#	Time	R.Midfoot.Superior			Sacral			L.Shoulder			Chest			R.Shoulder			Neck			R.ASIS			L.ASIS			R.Thigh.Superior			R.Thigh.Lateral			R.Thigh.Inferior			R.Patella			L.Thigh.Superior			L.Thigh.Lateral			L.Thigh.Inferior			L.Patella			L.Shank.Superior			L.Shank.Lateral			L.Shank.Inferior			R.Shank.Superior			R.Shank.Lateral			R.Shank.Inferior			R.Heel			R.Midfoot.Lateral			R.Toe			L.Heel			L.Midfoot.Lateral			L.Midfoot.Superior			L.Toe			L.Elbow			L.Wrist			R.Elbow			R.Wrist			
		X1	Y1	Z1	X2	Y2	Z2	X3	Y3	Z3	X4	Y4	Z4	X5	Y5	Z5	X6	Y6	Z6	X7	Y7	Z7	X8	Y8	Z8	X9	Y9	Z9	X10	Y10	Z10	X11	Y11	Z11	X12	Y12	Z12	X13	Y13	Z13	X14	Y14	Z14	X15	Y15	Z15	X16	Y16	Z16	X17	Y17	Z17	X18	Y18	Z18	X19	Y19	Z19	X20	Y20	Z20	X21	Y21	Z21	X22	Y22	Z22	X23	Y23	Z23	X24	Y24	Z24	X25	Y25	Z25	X26	Y26	Z26	X27	Y27	Z27	X28	Y28	Z28	X29	Y29	Z29	X30	Y30	Z30	X31	Y31	Z31	X32	Y32	Z32	X33	Y33	Z33	

18	31.293428571429	1050.306263552077	113.723975687546	593.478780457187	720.513306602323	1005.469261353103	368.714816599821	955.498041246635	1430.849787145628	222.325710576859	1017.141286589788	1356.214991114304	399.862357555115	903.320680253416	1435.954639840184	551.212969999491	908.383612814452	1490.298683738861	376.608751125251	927.194130828314	942.892332445516	524.754767630048	957.565274929760	952.446853176720	251.333618928726	1000.225684181564	762.008309518453	505.733914671662	946.654269025074	647.201032489299	579.593029705717	1034.941199136262	601.188791174631	504.094677053059	1061.589841895593	513.469053369626	528.184110132421	983.583395864038	731.769487857924	296.984888735292	895.535225713026	614.733944448336	232.749155935169	964.049742032843	537.701136904396	312.198804274767	957.846196259048	466.724808037198	323.490688648138	915.971019413388	396.896846746073	315.052396235290	812.701546094877	296.706733569102	260.815747576779	834.192448675669	182.613097263294	338.509195508001	1028.752286147954	426.207041879578	543.774936628176	952.818460963877	330.511977159088	613.555480338151	1004.894610124188	229.232365610747	570.416559956698	878.901214333105	56.265894689233	553.564392566450	963.349762847015	46.532601031210	626.423284621012	1169.759202117655	65.270491769551	618.657569669663	683.122642807158	40.118176062303	378.767143653424	756.504644606220	35.619825652050	298.413121439472	841.917434230666	94.929190049193	325.171882113134	968.705673144461	39.569110748793	294.090351962348	1086.604659318800	1141.487137984677	64.138201747807	1344.146139863261	1114.831823558700	88.838348846415	710.238733886194	1150.954809276619	646.784161686690	652.677575017791	896.474645329417	662.309306817783	
19	31.316571428571	1065.280236089092	112.256481705983	596.733803125567	721.940312838106	1006.314023604251	371.826905523704	959.078169482565	1430.301083652005	225.940596962026	1019.344094943236	1356.283533193810	404.123153554493	905.019856581205	1437.277342459901	554.406424494554	910.957163173799	1490.547267630345	379.619972969746	926.996669824907	942.793586097251	529.549842838514	959.592177331910	952.301740134952	256.229374938716	997.710038621812	760.276482938521	512.570426478531	941.077516115964	645.756435431890	585.167356136109	1030.006611902310	599.404342733263	510.777399457986	1055.765131324696	514.125958224099	533.397106289561	982.006563211617	730.846022812643	301.169552851903	892.740398455795	615.368032737902	235.090638939672	959.569830532034	536.987727545687	314.301171897124	952.227377201736	466.382511629154	325.151959862791	910.733419888197	397.013009014715	316.193175434861	807.474772989225	296.933209746044	261.618826849128	829.188472337333	182.561433480050	338.947064415897	1027.479884302286	426.252286556466	548.548215124694	956.965750277934	326.417040966258	619.171628474938	1013.538391891760	227.576516580876	574.871944785381	894.957995583017	50.007001062470	559.029893598571	980.866201152785	41.884653821117	630.283615353175	1186.808363255445	67.051676911834	619.232775032727	678.374984367697	39.800057189785	378.761443756136	751.733081034160	35.444645297677	298.386663184568	837.121947736352	94.864009300097	325.252808683869	963.970272242050	39.628255410741	294.134401204714	1092.137836777931	1142.173791568768	68.847567118081	1350.422832951422	1127.569125200835	93.430190790949	710.386866486649	1152.798769755196	645.758884899221	651.572796284057	898.251737172817	657.420809598758	
20	31.339714285714	1076.430715353935	110.827623573944	599.102589352575	723.677829699112	1006.569147104842	375.630533092668	962.209219380505	1429.444272771070	230.024583957038	1021.600097558321	1355.995232329899	408.666305392582	907.035465234907	1438.001093881433	558.225805011030	913.414172590807	1490.366675175311	383.248818387613	927.523573040621	942.123933110748	534.462811330081	961.732125025234	951.873824013866	261.237526280425	996.179743966371	758.158484929869	519.016823473191	936.743614722207	643.818082712140	590.216943598854	1026.205554531644	597.322567672877	516.670043855235	1050.804230486995	513.955737612278	537.825804769978	980.987476062911	729.729842480516	305.390564639585	890.553152326033	615.719731983692	237.660763896915	955.848579888654	536.077420216783	316.551785306779	947.432393421473	465.740623785616	326.954545982681	906.142575354485	396.827398128764	317.505779220259	802.666567018094	297.108101894053	262.557066003947	824.392385452905	182.381308891691	339.443524823752	1026.244164547382	425.607564076258	552.621325614806	960.081950064488	322.737019318010	623.773571261253	1019.929193581709	225.977680667332	578.378727235284	907.003720058961	45.771905295202	563.141191653634	993.821888763498	38.723034692106	633.222647243593	1199.150827903433	67.684868357104	619.663901905856	673.626926439787	39.504201670521	378.773642066348	746.968250959719	35.282403189552	298.372371798286	832.338922057672	94.793969562856	325.351408930392	959.235009278953	39.674943407172	294.174952724464	1096.874940960520	1142.281988351694	73.884960151876	1355.327889915944	1138.299937292899	98.223475615613	712.478936255236	1152.845856969746	645.810431335931	653.823713770762	897.857921556918	653.564283778350	
21	31.362857142857	1083.781638177478	109.304737102928	600.560593751749	725.744222637241	1006.335543561297	380.098580387366	964.943144464255	1428.389272325811	234.587882876518	1023.940379680082	1355.440013881099	413.510951102491	909.360503206591	1438.202546958370	562.677974338970	915.786729973265	1489.847630148841	387.511539273964	928.818326622723	941.007117182578	539.476463625694	964.012913262124	951.249316612327	266.340417576126	995.780465456682	755.845854684451	524.920094008581	933.903164973951	641.574122285958	594.653035764876	1023.764502949191	595.133080575446	521.666320604460	1047.012457028672	513.087865358448	541.419794269046	980.563890096788	728.458685962688	309.588712456429	888.951010760671	615.839735579807	240.452111290701	952.882223032393	535.010008398940	318.928159607923	943.466347990809	464.844376791068	328.881677434941	902.191307527649	396.394960628916	318.978863219657	798.273452165254	297.284102773146	263.621788588206	819.811742359989	182.119626218870	339.979648802843	1025.281238258208	424.344175936588	555.942779940372	962.300828364597	319.452283294664	627.337203399554	1024.170329582085	224.304622658116	580.888231832831	914.955328662352	43.179154557561	565.906021294504	1002.204612076616	36.779229152965	635.287107266284	1206.988388458390	67.123680339714	620.000527698217	668.889834098001	39.279771071307	378.795821122482	742.221722545040	35.160526398454	298.368800356201	827.585914795563	94.733506900927	325.453635557997	954.506269689932	39.699243919361	294.206683068092	1100.813078584437	1141.909340392087	79.181091596111	1359.021815582034	1147.010891970528	103.160808564394	716.191882234512	1151.407746306738	647.135874143497	658.885086509394	895.711153672343	651.246350513812	
22	31.386000000000	1087.622761442061	107.634889806352	601.155362510681	728.141741223877	1005.753951191065	385.186051968599	967.356255487525	1427.260026543205	239.618083104853	1026.400990108478	1354.724839029119	418.657704051273	911.998551408814	1437.996646367275	567.736773108070	918.122915209704	1489.107473724343	392.392481600831	930.882905735424	939.607502300723	544.583642233884	966.444470682548	950.527308840984	271.529454097645	996.572815858693	753.535819496267	530.197921665685	932.687434215932	639.231909979369	598.467255607123	1022.797766595502	593.013752813534	525.761788039924	1044.590911469875	511.689765330199	544.213459392873	980.720403212367	727.089479565672	313.722242875938	887.865060632146	615.805211367549	243.451738400219	950.614327700758	533.847129043312	321.403281684547	940.278539805044	463.767756283253	330.909684796067	898.832504929692	395.800720139106	320.591486725116	794.262418589021	297.529436040730	264.803845671456	815.444349034620	181.840259185456	340.535046678608	1024.787655966717	422.590968516653	558.526609544314	963.839331433169	316.551190438101	629.938663511720	1026.514520444757	222.491809858514	582.434797556476	919.057010306315	41.833186346375	567.455099332569	1006.359228478740	35.776087896228	636.578751342811	1210.802030964094	65.475864565059	620.251782353894	664.178107232694	39.189230544350	378.820743744607	737.506478235409	35.115624722717	298.375427476767	822.884740137022	94.701286596807	325.545806490964	949.791010239270	39.690094514680	294.224245924939	1103.963493659481	1141.149863613389	84.686112642157	1361.675128555761	1153.727261787471	108.194850132200	721.209303547947	1148.875070450772	649.860536534791	666.199220038779	892.311411147207	650.880047081863	
23	31.409142857143	1088.455870269632	105.846579322633	601.010463912186	730.855753343933	1004.988633862097	390.834059974675	969.540930403706	1426.181756402324	245.076705573748	1029.018194583403	1353.961578373055	424.084398501201	914.961621195083	1437.523516954437	573.341686172127	920.480888228038	1488.277432950860	397.841330634277	933.678821986456	938.111936227326	549.784455676610	969.016451607559	949.808556567735	276.800901551857	998.522825849179	751.411530292548	534.845845163858	933.098750347483	636.995928952239	601.732989830366	1023.291363156337	591.113862258189	529.045297165367	1043.613329506546	509.950783724987	546.319099863427	981.388330385271	725.694031917100	317.769263285245	887.187939152360	615.712240703601	246.640264409253	948.943849098654	532.667201104283	323.945289975604	937.770222133527	462.607233641981	333.007771458898	895.986385708165	395.150852644907	322.313741899901	790.577027558257	297.921321470634	266.093681226316	811.280253224013	181.618360982755	341.089507952516	1024.890615082117	420.519275545275	560.453791262473	964.950161398196	314.035675635341	631.739634700438	1027.315562318019	220.546305862496	583.135292005457	919.824312089050	41.364303763705	568.015263805186	1006.917584156698	35.450347791181	637.240759167602	1211.280336075392	62.983768094131	620.407724996268	659.508323218232	39.305210609314	378.842757885145	732.836252620544	35.191783743267	298.392414849908	818.260577407919	94.719179420552	325.615857706090	945.096385871024	39.636764275290	294.223098223701	1106.352474002073	1140.085080740709	90.371613074394	1363.461731903100	1158.497004001237	113.290525821729	727.236589838964	1145.675361449738	654.032350930339	675.222006471078	888.186755502968	652.755004796096	
24	31.432285714286	1086.907175580587	104.027526907339	600.314710981529	733.855951982350	1004.207083371996	396.975862599854	971.593321456967	1425.267511138469	250.898646494730	1031.822399636024	1353.255301838243	429.744493489355	918.264728841187	1436.932723398723	579.400286297223	922.919856465359	1487.487732613819	403.774028703503	937.132511548904	936.706472282743	555.082404862945	971.699470788661	949.184350480849	282.151823784031	1001.504224901872	749.621455731499	538.934568395049	935.010270395172	635.042098944146	604.593783302106	1025.101704113277	589.539437889908	531.682227648660	1044.014512861775	508.060088081793	547.912972192486	982.453058250423	724.352370393120	321.726939762918	886.786102117702	615.666087046794	249.991677509716	947.737449923147	531.557883948841	326.517669482047	935.806792803155	461.472199518900	335.138271829835	893.550068519324	394.560861440199	324.107964181497	787.145043159008	298.537426061941	267.480423275060	807.303831410331	181.532717904303	341.623920358672	1025.623559996254	418.316806499893	561.865943286780	965.860434229208	311.914715272589	632.958907589885	1026.961572972233	218.533910237517	583.176361321760	917.944831468547	41.454987348988	567.866043624920	1004.681252176347	35.566898178729	637.439457653512	1209.215252377783	59.971785253654	620.466207874868	654.897975515601	39.704275348627	378.858498092125	728.224467741487	35.436570257583	298.420148709874	813.740116803958	94.810341847929	325.654006920478	940.429241843328	39.530553694727	294.200368206024	1108.019075697208	1138.777279116996	96.229828984408	1364.550454353838	1161.375578818082	118.425465162999	734.011776286878	1142.229691720079	659.621165468647	685.447733761143	883.842365216533	657.016093203746	
